<svg id="Calque_1" xmlns="http://www.w3.org/2000/svg" viewBox="0 0 170 80"><path d="M64.68,1.93C35.11,4.79,11,13.78,0,25.61L6.09,40h0C6.16,22,31,6.81,64.68,2.39Z" style="fill:#9ac31c"/><path d="M163.87,40v0c0,18-24.84,33.19-58.55,37.61v.46C134.89,75.21,159,66.22,170,54.39Z" style="fill:#9ac31c"/><path d="M22.12,50.91V24.31l6.61-2.81V44.9h10l2.56,6Z" style="fill:#2d2e87"/><path d="M64.51,50.91V29.28h6.4v3c1-2.18,3.3-3.43,6.26-3.43a21.13,21.13,0,0,1,3,.32L77.81,34.8a5.41,5.41,0,0,0-6.9,5.56V50.91Z" style="fill:#2d2e87"/><path d="M80.68,40.06a10.76,10.76,0,0,1,3.3-8.2,11.68,11.68,0,0,1,8.41-3.13,10.71,10.71,0,0,1,11.12,11c0,.73-.05,1.42-.09,2.06H87.07C87.2,44.35,89.43,46,92.82,46a7.45,7.45,0,0,0,5.28-2.1l3.73,3.56a12.5,12.5,0,0,1-9.31,4,12.12,12.12,0,0,1-8.58-3,10.62,10.62,0,0,1-3.26-8.15Zm16.39-2.45c0-2-2.1-3.61-4.68-3.61-2.79,0-5.06,1.59-5.23,3.61Z" style="fill:#2d2e87"/><path d="M147.13,32a10.6,10.6,0,0,1,3.52,8.11,10.75,10.75,0,0,1-3.52,8.15,12.61,12.61,0,0,1-17,0,10.85,10.85,0,0,1-3.48-8.15A10.7,10.7,0,0,1,130.1,32a12.5,12.5,0,0,1,17,0ZM134.65,44.13a5.7,5.7,0,0,0,8,0,5.59,5.59,0,0,0,1.63-4,5.44,5.44,0,0,0-1.63-4,5.58,5.58,0,0,0-8,0,5.41,5.41,0,0,0-1.64,4A5.5,5.5,0,0,0,134.65,44.13Z" style="fill:#2d2e87"/><path d="M55.53,29.28C54,32.8,51.73,38.1,50.61,40.75c-.18.43-.4.93-.66,1.49l-5.6-13-5.58,2.39,7.44,17.34a26.07,26.07,0,0,1-3.91,4.59l2.49,5.8c5.81-4.39,9.6-11.91,11.41-16.2,1.42-3.37,4.74-11,5.94-13.83Z" style="fill:#2d2e87"/><path d="M117.93,45.68a5.65,5.65,0,0,1,0-11.29,6.57,6.57,0,0,1,5,2.22l2.37-5.54a11.56,11.56,0,0,0-7.34-2.47,11.91,11.91,0,0,0-8.49,3.3A10.84,10.84,0,0,0,106,40.06a10.84,10.84,0,0,0,3.44,8.15,11.87,11.87,0,0,0,8.49,3.26,11.52,11.52,0,0,0,7.23-2.39l-2.35-5.53A6.55,6.55,0,0,1,117.93,45.68Z" style="fill:#2d2e87"/></svg>
